<?xml version="1.0" standalone="no"?><!DOCTYPE svg PUBLIC "-//W3C//DTD SVG 1.1//EN" "http://www.w3.org/Graphics/SVG/1.1/DTD/svg11.dtd"><svg t="1601964825487" class="icon" viewBox="0 0 1024 1024" version="1.1" xmlns="http://www.w3.org/2000/svg" p-id="3428" xmlns:xlink="http://www.w3.org/1999/xlink" width="512" height="512"><defs><style type="text/css"></style></defs><path d="M996.236 390.818c-11.06-9.594-53.184-27.656-79.526-38.406l-80.964-69.402-7.5-19.936c-0.75-2.062-1.844-4-3.218-5.75-44.218-55.998-120.09-104.214-141.996-117.496-5.562-10.562-18.312-29.124-45.778-48.154-49.092-33.936-122.964-55.342-219.678-63.624-13.968-1.188-28-1.782-41.656-1.782-59.248 0-115.746 11.282-167.994 33.5-41.75 17.78-80.778 42.53-116.026 73.558-59.998 52.876-88.214 105.592-89.402 107.81a21.246 21.246 0 0 0 0 19.938l383.984 725.312c3.718 7 11 11.344 18.874 11.344 0.438 0 0.906 0 1.376-0.032 4.062-0.282 100.588-6.876 195.306-39.53 118.932-41.028 151.524-129.744 157.93-196.93 3.782-39.498-0.938-75.842-5.968-100.622 35.092 5.156 90.124 12.468 119.434 12.468 3.906 0 7.28-0.124 10.28-0.376 50.124-4.156 60.842-45.746 61.28-47.528 0.312-1.188 0.5-2.376 0.562-3.594l0.968-13.782c38.686-28.312 43.686-85.558 45.404-105.434 0.062-0.562 0.124-1.188 0.156-1.75 2.032-3.094 6.404-8.75 9.466-12.688 14.312-18.562 22.438-29.688 22.438-41.81-0.002-16.65-12.97-42.492-27.752-55.304z" fill="#FC6E51" p-id="3429"></path><path d="M670.438 133.828c-5.594-1.094-138.21-26.124-283.392-1.5-86.466 14.656-159.246 44.03-216.338 87.31-50.216 38.06-88.09 86.776-113.214 145.336l26.75 50.498c21.186-66.902 58.686-121.12 111.808-161.492 51.374-39.092 117.682-65.81 197.118-79.404 137.37-23.53 267.334 0.782 269.174 1.124 11.562 2.218 22.75-5.312 25-16.904 2.218-11.562-5.344-22.75-16.906-24.968zM605.068 301.758c11.782 0.188 21.436-9.28 21.592-21.06 0.156-11.78-9.248-21.436-21.06-21.592-4.468-0.062-111.06-0.968-222.868 42.964-66.56 26.188-121.058 62.874-161.9 109.09-32.592 36.844-56.404 79.592-71.214 127.778l30.248 57.124c10.374-60.842 34.686-113.246 72.498-156.15 36.156-41.06 84.902-73.936 144.87-97.684 104.088-41.218 206.804-40.502 207.834-40.47zM602.6 441.378c11.718-1.094 20.374-11.438 19.31-23.188-1.062-11.716-11.436-20.374-23.186-19.31-1.75 0.156-43.188 4.062-97.31 23.248-71.934 25.5-132.62 66.31-175.43 118.028-42.624 51.466-68.498 113.588-77.528 185.492l39.28 74.216c-2.75-93.842 20.998-171.836 70.872-232.18 47.56-57.624 110.964-88.84 155.774-104.872 49.28-17.62 87.656-21.402 88.218-21.434zM658.158 514.158c-5.624-10.376-18.56-14.25-28.936-8.656-3 1.624-74.998 40.966-143.746 125.934-40.372 49.902-71.308 105.306-91.872 164.68-16.312 47.06-26.124 96.652-29.374 148.21l22.25 42.06c3.718 7 11 11.344 18.874 11.344h0.532c-1.656-65.716 7.594-128.306 27.656-186.554 18.748-54.56 47.028-105.528 83.996-151.526 63.124-78.59 130.808-115.962 131.932-116.588 10.376-5.594 14.248-18.53 8.688-28.904zM764.964 623.716c-6.03-10.124-19.124-13.438-29.248-7.406-2.124 1.282-52.966 31.964-105.962 94.026-31.092 36.406-56.592 76.216-75.78 118.308-22.06 48.498-35.748 100.088-40.78 153.618a820.974 820.974 0 0 0 44.092-10.466c5.468-43.282 17.25-85.058 35.124-124.556 17.376-38.344 40.498-74.686 68.744-107.996 38.844-45.75 80.06-76.466 96.436-86.31 10.124-6.034 13.406-19.124 7.374-29.218z" fill="#E9573F" p-id="3430"></path><path d="M996.236 390.818c-11.06-9.594-53.184-27.656-79.526-38.406l-80.964-69.402-7.5-19.936c-0.75-2.062-1.844-4-3.218-5.75-50.968-64.56-144.028-118.746-147.964-121.028a21.36 21.36 0 0 0-26.966 4.688c-2.124 2.5-52.496 62.78-70.308 155.9-10.5 54.964-7.5 109.964 8.938 163.492 20.312 66.154 61.214 129.872 121.62 189.46a21.142 21.142 0 0 0 11.562 5.844c4.344 0.718 107.246 17.406 151.526 17.406 3.906 0 7.28-0.124 10.28-0.376 39.998-3.312 57.342-31.436 61.28-47.528 0.312-1.188 0.5-2.376 0.562-3.594l0.968-13.782c38.686-28.312 43.686-85.558 45.404-105.434 0.062-0.562 0.124-1.188 0.156-1.75 2.032-3.094 6.404-8.75 9.466-12.688 14.312-18.562 22.438-29.688 22.438-41.81-0.004-16.652-12.972-42.494-27.754-55.306z" fill="#FFCE54" p-id="3431"></path><path d="M831.996 336.446c0 11.782-9.562 21.31-21.344 21.31-11.75 0-21.312-9.53-21.312-21.31s9.562-21.344 21.312-21.344c11.782 0 21.344 9.562 21.344 21.344z" fill="#434A54" p-id="3432"></path><path d="M841.652 336.446h-74.282c-11.78 0-21.342-9.562-21.342-21.344s9.562-21.342 21.342-21.342h74.282c11.78 0 21.342 9.56 21.342 21.342s-9.562 21.344-21.342 21.344z" fill="#F6BB42" p-id="3433"></path><path d="M929.272 475.44l62.81 25.186 18.904-25.186z" opacity=".1" p-id="3434"></path><path d="M963.522 591.092l-83.808 22.218 66.808-5.5c6.594-4.812 12.218-10.53 17-16.718z" fill="#434A54" p-id="3435"></path></svg>